<svg width="791" height="1010" viewBox="0 0 791 1010" fill="none" xmlns="http://www.w3.org/2000/svg">
<path d="M428.418 11.8702C420.226 3.65429 408.866 -0.522493 396.496 0.0971393L395.67 0.143038L394.844 0.0971393C388.988 -0.303921 383.113 0.539909 377.607 2.57307C372.101 4.60624 367.088 7.78262 362.898 11.8931L113.232 260.664L101.413 272.69L37.4074 336.466L14.1827 359.713C9.72143 364.093 6.17135 369.313 3.73716 375.072C1.30297 380.83 0.0328395 387.014 0 393.265C0 404.648 4.29153 415.205 12.0484 422.985C25.1295 436.02 45.1873 438.728 62.5599 430.007L353.535 139.859V967.917C353.535 991.004 372.445 1009.8 395.67 1009.8C418.894 1009.8 437.782 991.004 437.782 967.917V139.859L722.078 423.168C738.763 436.25 762.538 434.781 777.708 419.611C781.619 415.717 784.725 411.089 786.848 405.994C788.97 400.899 790.068 395.435 790.079 389.916C790.09 384.396 789.013 378.928 786.91 373.825C784.807 368.721 781.719 364.082 777.822 360.172L428.418 11.8702Z" fill="black"/>
</svg>
