<svg width="5880" height="2136" viewBox="0 0 5880 2136" fill="none" xmlns="http://www.w3.org/2000/svg">
<path d="M93.8 1806C96.6 1673 98 1565.2 98 1484C98 1300.6 81.2 1086.4 56 840L544.6 835.8H554.4C658 835.8 719.6 856.8 782.6 908.6C894.6 999.6 960.4 1101.8 960.4 1153.6C960.4 1234.8 882 1321.6 730.8 1440.6C775.6 1559.6 845.6 1668.8 938 1776.6L672 1817.2C576.8 1723.4 498.4 1622.6 435.4 1506.4L382.2 1502.2L375.2 1806H93.8ZM379.4 1388.8C519.4 1337 599.2 1251.6 599.2 1192.8C599.2 1138.2 516.6 1078 359.8 1057L379.4 1388.8ZM1333.75 1804.6C1339.35 1647.8 1343.55 1513.4 1343.55 1401.4C1343.55 1232 1333.75 1043 1322.55 834.4H1671.15C1645.95 1043 1630.55 1240.4 1630.55 1432.2C1630.55 1556.8 1637.55 1680 1650.15 1804.6C1567.55 1803.2 1518.55 1803.2 1504.55 1803.2C1482.15 1803.2 1424.75 1803.2 1333.75 1804.6ZM2210.88 1806L2230.48 1108.8L1982.68 1127V1096.2C1982.68 1006.6 1993.88 919.8 2014.88 830.2C2173.08 837.2 2294.88 841.4 2383.08 841.4C2481.08 841.4 2622.48 837.2 2807.28 827.4C2775.08 931 2749.88 1030.4 2733.08 1124.2L2517.48 1115.8L2542.68 1806H2210.88ZM2936.86 1797.6C3092.26 1482.6 3235.06 1160.6 3368.06 830.2H3587.86L4069.46 1793.4L3715.26 1811.6L3648.06 1625.4C3576.66 1622.6 3522.06 1621.2 3484.26 1621.2C3450.66 1621.2 3397.46 1622.6 3326.06 1625.4L3263.06 1810.2L2936.86 1797.6ZM3403.06 1383.2L3607.46 1404.2L3509.46 1176L3403.06 1383.2ZM4705.51 827.4C4789.51 977.2 4879.11 1143.8 4978.51 1331.4C5086.31 1160.6 5185.71 994 5280.91 830.2L5461.51 837.2C5479.71 1153.6 5534.31 1471.4 5623.91 1799L5294.91 1804.6L5217.91 1373.4L4944.91 1815.8L4699.91 1415.4L4596.31 1806L4285.51 1804.6C4372.31 1493.8 4450.71 1171.8 4520.71 834.4L4705.51 827.4Z" fill="#81000A"/>
<path d="M1085.51 713V512.57H1125.98V591.457H1205.27V512.57H1245.74V713H1205.27V625.363H1125.98V713H1085.51ZM1331.31 614.016C1331.31 593.599 1334.37 576.464 1340.47 562.609C1345.03 552.401 1351.23 543.241 1359.07 535.129C1367 527.017 1375.65 521.001 1385.04 517.082C1397.53 511.796 1411.93 509.152 1428.25 509.152C1457.78 509.152 1481.38 518.312 1499.07 536.633C1516.84 554.953 1525.73 580.428 1525.73 613.059C1525.73 645.415 1516.93 670.754 1499.34 689.074C1481.75 707.303 1458.23 716.418 1428.79 716.418C1398.99 716.418 1375.29 707.349 1357.7 689.211C1340.11 670.982 1331.31 645.917 1331.31 614.016ZM1373.01 612.648C1373.01 635.344 1378.25 652.57 1388.73 664.328C1399.22 675.995 1412.52 681.828 1428.66 681.828C1444.79 681.828 1458 676.04 1468.3 664.465C1478.69 652.798 1483.89 635.344 1483.89 612.102C1483.89 589.133 1478.83 571.997 1468.71 560.695C1458.69 549.393 1445.34 543.742 1428.66 543.742C1411.98 543.742 1398.53 549.484 1388.32 560.969C1378.12 572.362 1373.01 589.589 1373.01 612.648ZM1654.36 713V546.477H1594.89V512.57H1754.17V546.477H1694.83V713H1654.36ZM1832.22 713V512.57H1980.83V546.477H1872.69V590.91H1973.31V624.68H1872.69V679.23H1984.66V713H1832.22ZM2071.87 713V514.211H2112.34V679.23H2212.96V713H2071.87ZM2595.6 688.527L2572.36 718.195C2560.97 712.635 2550.03 704.979 2539.55 695.227C2531.44 702.518 2522.82 707.896 2513.71 711.359C2504.6 714.823 2493.75 716.555 2481.17 716.555C2456.2 716.555 2437.42 709.536 2424.84 695.5C2415.09 684.654 2410.21 672.167 2410.21 658.039C2410.21 645.188 2414.04 633.658 2421.7 623.449C2429.35 613.15 2440.79 604.217 2456.01 596.652C2449.18 588.54 2444.03 580.839 2440.57 573.547C2437.1 566.164 2435.37 559.191 2435.37 552.629C2435.37 540.507 2440.2 530.253 2449.86 521.867C2459.62 513.391 2473.47 509.152 2491.43 509.152C2508.74 509.152 2522.28 513.573 2532.03 522.414C2541.78 531.255 2546.66 542.056 2546.66 554.816C2546.66 562.928 2544.24 570.63 2539.41 577.922C2534.58 585.214 2524.83 593.462 2510.16 602.668L2538.05 639.445C2541.33 633.612 2544.15 626.001 2546.52 616.613L2581.25 624.543C2577.79 636.848 2574.78 645.871 2572.23 651.613C2569.67 657.264 2566.94 662.004 2564.02 665.832C2568.31 669.842 2573.82 674.263 2580.57 679.094C2587.4 683.833 2592.41 686.978 2595.6 688.527ZM2491.01 579.562L2501.41 571.633C2509.06 565.708 2512.89 559.829 2512.89 553.996C2512.89 549.074 2511.02 544.882 2507.28 541.418C2503.64 537.954 2498.67 536.223 2492.38 536.223C2486.28 536.223 2481.49 537.772 2478.03 540.871C2474.56 543.879 2472.83 547.388 2472.83 551.398C2472.83 556.138 2475.75 561.88 2481.58 568.625L2491.01 579.562ZM2475.98 621.262C2467.13 625.728 2460.53 631.105 2456.15 637.395C2451.78 643.684 2449.59 650.109 2449.59 656.672C2449.59 664.966 2452.28 671.757 2457.66 677.043C2463.12 682.238 2470.42 684.836 2479.53 684.836C2485.55 684.836 2491.33 683.651 2496.89 681.281C2502.45 678.911 2508.51 674.992 2515.08 669.523L2475.98 621.262ZM2930.4 639.309L2969.63 651.75C2963.62 673.625 2953.59 689.895 2939.56 700.559C2925.61 711.132 2907.88 716.418 2886.37 716.418C2859.76 716.418 2837.88 707.349 2820.75 689.211C2803.61 670.982 2795.04 646.099 2795.04 614.562C2795.04 581.203 2803.66 555.318 2820.88 536.906C2838.11 518.404 2860.76 509.152 2888.83 509.152C2913.35 509.152 2933.27 516.398 2948.58 530.891C2957.69 539.458 2964.53 551.763 2969.09 567.805L2929.03 577.375C2926.66 566.984 2921.69 558.781 2914.13 552.766C2906.65 546.75 2897.54 543.742 2886.78 543.742C2871.93 543.742 2859.85 549.074 2850.55 559.738C2841.35 570.402 2836.74 587.674 2836.74 611.555C2836.74 636.893 2841.3 654.94 2850.42 665.695C2859.53 676.451 2871.38 681.828 2885.96 681.828C2896.72 681.828 2905.97 678.41 2913.72 671.574C2921.46 664.738 2927.02 653.983 2930.4 639.309ZM3237.04 713H3193.02L3175.52 667.473H3095.4L3078.86 713H3035.93L3113.99 512.57H3156.79L3237.04 713ZM3162.53 633.703L3134.91 559.328L3107.84 633.703H3162.53ZM3310.71 713V512.57H3448.12V546.477H3351.18V593.918H3434.86V627.824H3351.18V713H3310.71ZM3533.69 713V512.57H3671.09V546.477H3574.16V593.918H3657.83V627.824H3574.16V713H3533.69ZM3756.39 713V512.57H3905V546.477H3796.85V590.91H3897.48V624.68H3796.85V679.23H3908.83V713H3756.39ZM4124.81 512.57H4204.93C4220.79 512.57 4232.59 513.254 4240.34 514.621C4248.18 515.897 4255.15 518.632 4261.25 522.824C4267.45 527.017 4272.6 532.622 4276.7 539.641C4280.81 546.568 4282.86 554.361 4282.86 563.02C4282.86 572.408 4280.3 581.021 4275.2 588.859C4270.19 596.698 4263.35 602.577 4254.69 606.496C4266.91 610.051 4276.29 616.112 4282.86 624.68C4289.42 633.247 4292.7 643.319 4292.7 654.895C4292.7 664.009 4290.56 672.896 4286.27 681.555C4282.08 690.122 4276.29 697.004 4268.91 702.199C4261.62 707.303 4252.6 710.448 4241.84 711.633C4235.1 712.362 4218.83 712.818 4193.03 713H4124.81V512.57ZM4165.28 545.93V592.277H4191.8C4207.57 592.277 4217.37 592.049 4221.2 591.594C4228.12 590.773 4233.55 588.404 4237.47 584.484C4241.48 580.474 4243.48 575.233 4243.48 568.762C4243.48 562.564 4241.75 557.551 4238.29 553.723C4234.91 549.803 4229.85 547.434 4223.11 546.613C4219.1 546.158 4207.57 545.93 4188.52 545.93H4165.28ZM4165.28 625.637V679.23H4202.74C4217.32 679.23 4226.57 678.82 4230.49 678C4236.51 676.906 4241.38 674.263 4245.12 670.07C4248.95 665.786 4250.86 660.09 4250.86 652.98C4250.86 646.965 4249.41 641.861 4246.49 637.668C4243.57 633.475 4239.33 630.422 4233.77 628.508C4228.31 626.594 4216.37 625.637 4197.95 625.637H4165.28ZM4559.56 713H4515.54L4498.04 667.473H4417.92L4401.38 713H4358.45L4436.51 512.57H4479.3L4559.56 713ZM4485.05 633.703L4457.43 559.328L4430.36 633.703H4485.05ZM4633.1 713V512.57H4718.27C4739.69 512.57 4755.23 514.393 4764.89 518.039C4774.65 521.594 4782.44 527.974 4788.27 537.18C4794.11 546.385 4797.02 556.913 4797.02 568.762C4797.02 583.801 4792.6 596.242 4783.76 606.086C4774.92 615.839 4761.7 621.991 4744.11 624.543C4752.86 629.647 4760.06 635.253 4765.71 641.359C4771.46 647.466 4779.16 658.312 4788.82 673.898L4813.29 713H4764.89L4735.64 669.387C4725.25 653.801 4718.14 644.003 4714.31 639.992C4710.48 635.891 4706.42 633.111 4702.14 631.652C4697.86 630.103 4691.07 629.328 4681.77 629.328H4673.57V713H4633.1ZM4673.57 597.336H4703.51C4722.92 597.336 4735.04 596.516 4739.87 594.875C4744.7 593.234 4748.49 590.409 4751.22 586.398C4753.96 582.388 4755.32 577.375 4755.32 571.359C4755.32 564.615 4753.5 559.191 4749.85 555.09C4746.3 550.897 4741.24 548.254 4734.68 547.16C4731.4 546.704 4721.55 546.477 4705.15 546.477H4673.57V597.336Z" fill="#81000A"/>
<path d="M2318 0L2379.13 126.133L2518 145.317L2416.93 242.45L2441.6 380.433L2318 314.317L2194.38 380.433L2219.07 242.45L2118 145.317L2256.87 126.133L2318 0Z" fill="#81000A"/>
<path d="M2940 0L3001.13 126.133L3140 145.317L3038.93 242.45L3063.6 380.433L2940 314.317L2816.38 380.433L2841.07 242.45L2740 145.317L2878.87 126.133L2940 0Z" fill="#81000A"/>
<path d="M3562 0L3623.13 126.133L3762 145.317L3660.93 242.45L3685.6 380.433L3562 314.317L3438.38 380.433L3463.07 242.45L3362 145.317L3500.87 126.133L3562 0Z" fill="#81000A"/>
</svg>
