<svg width="905" height="983" viewBox="0 0 905 983" fill="none" xmlns="http://www.w3.org/2000/svg">
<path d="M37.8 971C40.6 838 42 730.2 42 649C42 465.6 25.2 251.4 3.96371e-06 4.99992L488.6 0.799974H498.4C602 0.799974 663.6 21.8 726.6 73.6C838.6 164.6 904.4 266.8 904.4 318.6C904.4 399.8 826 486.6 674.8 605.6C719.6 724.6 789.6 833.8 882 941.6L616 982.2C520.8 888.4 442.4 787.6 379.4 671.4L326.2 667.2L319.2 971H37.8ZM323.4 553.8C463.4 502 543.2 416.6 543.2 357.8C543.2 303.2 460.6 243 303.8 222L323.4 553.8Z" fill="#81000A"/>
</svg>
